<svg width="26" height="21" viewBox="0 0 26 21" fill="none" xmlns="http://www.w3.org/2000/svg">
<rect x="1" width="22" height="21" fill="white"/>
<path d="M5.38281 15.5078C5.38281 15.3633 5.41406 15.2383 5.47656 15.1328C5.54297 15.0234 5.65039 14.9688 5.79883 14.9688H7.22852V6.98828H5.79883C5.65039 6.98828 5.54297 6.93555 5.47656 6.83008C5.41406 6.7207 5.38281 6.59375 5.38281 6.44922C5.38281 6.32031 5.41992 6.20703 5.49414 6.10938C5.56836 6.00781 5.67383 5.95703 5.81055 5.95703H10.0117C10.1484 5.95703 10.2539 6.00781 10.3281 6.10938C10.4062 6.20703 10.4453 6.32031 10.4453 6.44922C10.4453 6.59375 10.4121 6.7207 10.3457 6.83008C10.2793 6.93555 10.1719 6.98828 10.0234 6.98828H8.59961V14.9688H10.0234C10.1719 14.9688 10.2793 15.0234 10.3457 15.1328C10.4121 15.2383 10.4453 15.3633 10.4453 15.5078C10.4453 15.6367 10.4062 15.752 10.3281 15.8535C10.2539 15.9512 10.1484 16 10.0117 16H5.81055C5.67383 16 5.56836 15.9512 5.49414 15.8535C5.41992 15.752 5.38281 15.6367 5.38281 15.5078ZM19.2637 8.83398C19.2637 7.91602 18.8613 7.37891 18.0566 7.22266C17.252 7.06641 16.4395 6.98828 15.6191 6.98828H14.4062V10.791H15.9766C16.8164 10.791 17.5742 10.6992 18.25 10.5156C18.9258 10.3281 19.2637 9.76758 19.2637 8.83398ZM20.6465 8.92188C20.6465 10.2734 20.127 11.084 19.0879 11.3535C18.0527 11.6191 16.9121 11.752 15.666 11.752H14.4062V14.9688H16.1934C16.3418 14.9688 16.4492 15.0234 16.5156 15.1328C16.582 15.2383 16.6152 15.3633 16.6152 15.5078C16.6152 15.6367 16.5762 15.752 16.498 15.8535C16.4238 15.9512 16.3184 16 16.1816 16H11.5C11.3633 16 11.2559 15.9512 11.1777 15.8535C11.1035 15.752 11.0664 15.6367 11.0664 15.5078C11.0664 15.3633 11.0996 15.2383 11.166 15.1328C11.2324 15.0234 11.3398 14.9688 11.4883 14.9688H13.0352V6.98828H11.6113C11.4629 6.98828 11.3555 6.93555 11.2891 6.83008C11.2227 6.7207 11.1895 6.59375 11.1895 6.44922C11.1895 6.32031 11.2266 6.20703 11.3008 6.10938C11.3789 6.00781 11.4863 5.95703 11.623 5.95703H15.4492C16.7539 5.95703 17.9453 6.10156 19.0234 6.39062C20.1055 6.67969 20.6465 7.52344 20.6465 8.92188Z" fill="black"/>
<circle cx="8" cy="4" r="1" fill="black"/>
</svg>
